<svg width="20" height="20" viewBox="0 0 20 20" fill="none" xmlns="http://www.w3.org/2000/svg">
<path fill-rule="evenodd" clip-rule="evenodd" d="M1.04175 1.66669C1.04175 1.32169 1.32175 1.04169 1.66675 1.04169C2.01175 1.04169 2.29175 1.32169 2.29175 1.66669V17.5C2.29175 17.555 2.31341 17.6084 2.35258 17.6475C2.39175 17.6867 2.44508 17.7084 2.50008 17.7084H18.3334C18.6784 17.7084 18.9584 17.9884 18.9584 18.3334C18.9584 18.6784 18.6784 18.9584 18.3334 18.9584H2.50008C2.11341 18.9584 1.74258 18.805 1.46925 18.5309C1.19508 18.2575 1.04175 17.8867 1.04175 17.5V1.66669Z" fill="#67676A"/>
<path fill-rule="evenodd" clip-rule="evenodd" d="M5.41675 15.625C4.38175 15.625 3.54175 14.785 3.54175 13.75C3.54175 12.715 4.38175 11.875 5.41675 11.875C6.45175 11.875 7.29175 12.715 7.29175 13.75C7.29175 14.785 6.45175 15.625 5.41675 15.625ZM5.41675 14.375C5.76175 14.375 6.04175 14.095 6.04175 13.75C6.04175 13.405 5.76175 13.125 5.41675 13.125C5.07175 13.125 4.79175 13.405 4.79175 13.75C4.79175 14.095 5.07175 14.375 5.41675 14.375Z" fill="#67676A"/>
<path fill-rule="evenodd" clip-rule="evenodd" d="M16.25 8.125C15.215 8.125 14.375 7.285 14.375 6.25C14.375 5.215 15.215 4.375 16.25 4.375C17.285 4.375 18.125 5.215 18.125 6.25C18.125 7.285 17.285 8.125 16.25 8.125ZM16.25 6.875C16.595 6.875 16.875 6.595 16.875 6.25C16.875 5.905 16.595 5.625 16.25 5.625C15.905 5.625 15.625 5.905 15.625 6.25C15.625 6.595 15.905 6.875 16.25 6.875Z" fill="#67676A"/>
<path fill-rule="evenodd" clip-rule="evenodd" d="M11.6667 13.5417C10.6317 13.5417 9.79175 12.7017 9.79175 11.6667C9.79175 10.6317 10.6317 9.79169 11.6667 9.79169C12.7017 9.79169 13.5417 10.6317 13.5417 11.6667C13.5417 12.7017 12.7017 13.5417 11.6667 13.5417ZM11.6667 12.2917C12.0117 12.2917 12.2917 12.0117 12.2917 11.6667C12.2917 11.3217 12.0117 11.0417 11.6667 11.0417C11.3217 11.0417 11.0417 11.3217 11.0417 11.6667C11.0417 12.0117 11.3217 12.2917 11.6667 12.2917Z" fill="#6F6F6F"/>
<path fill-rule="evenodd" clip-rule="evenodd" d="M6.92098 14.3209C6.60514 14.4609 6.23598 14.3192 6.09598 14.0042C5.95598 13.6884 6.09764 13.3192 6.41264 13.1792L10.1626 11.5125C10.4785 11.3725 10.8476 11.5142 10.9876 11.8292C11.1276 12.145 10.986 12.5142 10.671 12.6542L6.92098 14.3209Z" fill="#6F6F6F"/>
<path fill-rule="evenodd" clip-rule="evenodd" d="M13.4367 11.5967C13.2451 11.8834 12.8567 11.9617 12.5701 11.77C12.2834 11.5784 12.2051 11.19 12.3967 10.9034L14.8967 7.15338C15.0884 6.86671 15.4767 6.78838 15.7634 6.98005C16.0501 7.17171 16.1284 7.56005 15.9367 7.84671L13.4367 11.5967Z" fill="#6F6F6F"/>
</svg>
