<svg width="16" height="17" viewBox="0 0 16 17" fill="none" xmlns="http://www.w3.org/2000/svg">
<g clip-path="url(#clip0_563_614)">
<path fill-rule="evenodd" clip-rule="evenodd" d="M10.0133 6.83841C9.80131 6.66174 9.77265 6.34641 9.94931 6.13441C10.126 5.92241 10.4413 5.89374 10.6533 6.07041L12.6533 7.73707C12.7673 7.83174 12.8333 7.97241 12.8333 8.12107C12.8333 8.26974 12.7673 8.41041 12.6533 8.50507L10.6533 10.1717C10.4413 10.3484 10.126 10.3197 9.94931 10.1077C9.77265 9.89574 9.80131 9.58041 10.0133 9.40374L11.552 8.12107L10.0133 6.83841Z" fill="#6F6F6F"/>
<path fill-rule="evenodd" clip-rule="evenodd" d="M5.3465 6.07041C5.5585 5.89374 5.87384 5.92241 6.0505 6.13441C6.22717 6.34641 6.1985 6.66174 5.9865 6.83841L4.44784 8.12107L5.9865 9.40374C6.1985 9.58041 6.22717 9.89574 6.0505 10.1077C5.87384 10.3197 5.5585 10.3484 5.3465 10.1717L3.3465 8.50507C3.2325 8.41041 3.1665 8.26974 3.1665 8.12107C3.1665 7.97241 3.2325 7.83174 3.3465 7.73707L5.3465 6.07041Z" fill="#6F6F6F"/>
<path fill-rule="evenodd" clip-rule="evenodd" d="M7.99992 0.954407C11.9553 0.954407 15.1666 4.16574 15.1666 8.12107C15.1666 12.0764 11.9553 15.2877 7.99992 15.2877C4.04458 15.2877 0.833252 12.0764 0.833252 8.12107C0.833252 4.16574 4.04458 0.954407 7.99992 0.954407ZM7.99992 1.95441C4.59659 1.95441 1.83325 4.71774 1.83325 8.12107C1.83325 11.5244 4.59659 14.2877 7.99992 14.2877C11.4033 14.2877 14.1666 11.5244 14.1666 8.12107C14.1666 4.71774 11.4033 1.95441 7.99992 1.95441Z" fill="#6F6F6F"/>
<path fill-rule="evenodd" clip-rule="evenodd" d="M8.57131 6.19705C8.71331 5.96039 9.02064 5.88372 9.25731 6.02572C9.49398 6.16772 9.57064 6.47505 9.42864 6.71172L7.42865 10.0451C7.28665 10.2817 6.97931 10.3584 6.74265 10.2164C6.50598 10.0744 6.42931 9.76705 6.57131 9.53039L8.57131 6.19705Z" fill="#6F6F6F"/>
</g>
<defs>
<clipPath id="clip0_563_614">
<rect width="16" height="16" fill="white" transform="translate(0 0.121094)"/>
</clipPath>
</defs>
</svg>
