<svg width="16" height="17" viewBox="0 0 16 17" fill="none" xmlns="http://www.w3.org/2000/svg">
<g clip-path="url(#clip0_2_1410)">
<path d="M0.781396 16.25C0.626858 16.25 0.475783 16.2042 0.347281 16.1183C0.218778 16.0325 0.118621 15.9105 0.0594776 15.7677C0.000334661 15.6249 -0.0151369 15.4678 0.0150198 15.3162C0.0451766 15.1647 0.119607 15.0255 0.228896 14.9162L14.6664 0.4787C14.8129 0.332168 15.0117 0.249847 15.2189 0.249847C15.4261 0.249847 15.6249 0.332168 15.7714 0.4787C15.9179 0.625233 16.0002 0.823973 16.0002 1.0312C16.0002 1.23843 15.9179 1.43717 15.7714 1.5837L1.3339 16.0212C1.26141 16.0938 1.17528 16.1514 1.08047 16.1907C0.985653 16.23 0.884016 16.2501 0.781396 16.25Z" fill="#161616"/>
<path d="M15.2189 16.25C15.1162 16.2501 15.0146 16.23 14.9198 16.1907C14.825 16.1514 14.7388 16.0938 14.6664 16.0212L0.228853 1.5837C0.0823209 1.43717 0 1.23843 0 1.0312C0 0.823973 0.0823209 0.625233 0.228853 0.4787C0.375385 0.332168 0.574125 0.249847 0.781353 0.249847C0.988581 0.249847 1.18732 0.332168 1.33385 0.4787L15.7714 14.9162C15.8806 15.0255 15.9551 15.1647 15.9852 15.3162C16.0154 15.4678 15.9999 15.6249 15.9408 15.7677C15.8816 15.9105 15.7815 16.0325 15.653 16.1183C15.5245 16.2042 15.3734 16.25 15.2189 16.25Z" fill="#161616"/>
</g>
<defs>
<clipPath id="clip0_2_1410">
<rect width="16" height="16" fill="white" transform="translate(0 0.25)"/>
</clipPath>
</defs>
</svg>
