<svg width="16" height="17" viewBox="0 0 16 17" fill="none" xmlns="http://www.w3.org/2000/svg">
<g clip-path="url(#clip0_563_552)">
<path fill-rule="evenodd" clip-rule="evenodd" d="M14.6666 14.2877C14.9426 14.2877 15.1666 14.5117 15.1666 14.7877C15.1666 15.0637 14.9426 15.2877 14.6666 15.2877H1.33325C1.05725 15.2877 0.833252 15.0637 0.833252 14.7877C0.833252 14.5117 1.05725 14.2877 1.33325 14.2877H14.6666Z" fill="#6F6F6F"/>
<path fill-rule="evenodd" clip-rule="evenodd" d="M9.83333 3.12105V14.7877C9.83333 15.0637 9.60933 15.2877 9.33333 15.2877H2C1.724 15.2877 1.5 15.0637 1.5 14.7877V3.12105C1.5 2.66105 1.87333 2.28772 2.33333 2.28772H9C9.46 2.28772 9.83333 2.66105 9.83333 3.12105ZM2.5 3.28772V14.2877H8.83333V3.28772H2.5Z" fill="#6F6F6F"/>
<path fill-rule="evenodd" clip-rule="evenodd" d="M9.1665 1.78774V2.78774C9.1665 3.06374 8.9425 3.28774 8.6665 3.28774H2.6665C2.3905 3.28774 2.1665 3.06374 2.1665 2.78774V1.78774C2.1665 1.56707 2.2545 1.35507 2.4105 1.19841C2.56717 1.04241 2.7785 0.954407 2.99984 0.954407H8.33317C8.5545 0.954407 8.76584 1.04241 8.9225 1.19841C9.0785 1.35507 9.1665 1.56707 9.1665 1.78774ZM3.1665 1.95441V2.28774H8.1665V1.95441H3.1665Z" fill="#6F6F6F"/>
<path fill-rule="evenodd" clip-rule="evenodd" d="M7.49992 12.1211V14.7877C7.49992 15.0637 7.27592 15.2877 6.99992 15.2877H4.33325C4.05725 15.2877 3.83325 15.0637 3.83325 14.7877V12.1211C3.83325 11.8997 3.92125 11.6884 4.07725 11.5317C4.23392 11.3757 4.44592 11.2877 4.66659 11.2877H6.66659C6.88725 11.2877 7.09925 11.3757 7.25592 11.5317C7.41192 11.6884 7.49992 11.8997 7.49992 12.1211ZM4.83325 12.2877V14.2877H6.49992V12.2877H4.83325Z" fill="#6F6F6F"/>
<path fill-rule="evenodd" clip-rule="evenodd" d="M14.4999 6.12109V14.7878C14.4999 15.0638 14.2759 15.2878 13.9999 15.2878H9.33325C9.05725 15.2878 8.83325 15.0638 8.83325 14.7878V4.12109C8.83325 3.95309 8.91792 3.79642 9.05792 3.70376C9.19859 3.61109 9.37592 3.59509 9.52992 3.66176L14.1966 5.66176C14.3806 5.74042 14.4999 5.92109 14.4999 6.12109ZM13.4999 6.45109L9.83325 4.87909V14.2878H13.4999V6.45109Z" fill="#6F6F6F"/>
<path fill-rule="evenodd" clip-rule="evenodd" d="M5 6.92105C5 6.88572 4.986 6.85172 4.96067 6.82705C4.936 6.80172 4.902 6.78772 4.86667 6.78772H4.13333C4.098 6.78772 4.064 6.80172 4.03933 6.82705C4.014 6.85172 4 6.88572 4 6.92105V7.65439C4 7.68972 4.014 7.72372 4.03933 7.74839C4.064 7.77372 4.098 7.78772 4.13333 7.78772H4.86667C4.902 7.78772 4.936 7.77372 4.96067 7.74839C4.986 7.72372 5 7.68972 5 7.65439V6.92105Z" fill="#6F6F6F"/>
<path fill-rule="evenodd" clip-rule="evenodd" d="M5 4.58774C5 4.55241 4.986 4.51841 4.96067 4.49374C4.936 4.46841 4.902 4.45441 4.86667 4.45441H4.13333C4.098 4.45441 4.064 4.46841 4.03933 4.49374C4.014 4.51841 4 4.55241 4 4.58774V5.32107C4 5.35641 4.014 5.39041 4.03933 5.41507C4.064 5.44041 4.098 5.45441 4.13333 5.45441H4.86667C4.902 5.45441 4.936 5.44041 4.96067 5.41507C4.986 5.39041 5 5.35641 5 5.32107V4.58774Z" fill="#6F6F6F"/>
<path fill-rule="evenodd" clip-rule="evenodd" d="M5 9.25443C5 9.21909 4.986 9.18509 4.96067 9.16043C4.936 9.13509 4.902 9.12109 4.86667 9.12109H4.13333C4.098 9.12109 4.064 9.13509 4.03933 9.16043C4.014 9.18509 4 9.21909 4 9.25443V9.98776C4 10.0231 4.014 10.0571 4.03933 10.0818C4.064 10.1071 4.098 10.1211 4.13333 10.1211H4.86667C4.902 10.1211 4.936 10.1071 4.96067 10.0818C4.986 10.0571 5 10.0231 5 9.98776V9.25443Z" fill="#6F6F6F"/>
<path fill-rule="evenodd" clip-rule="evenodd" d="M12.1665 7.25443C12.1665 7.21909 12.1525 7.18509 12.1272 7.16043C12.1025 7.13509 12.0685 7.12109 12.0332 7.12109H11.2998C11.2645 7.12109 11.2305 7.13509 11.2058 7.16043C11.1805 7.18509 11.1665 7.21909 11.1665 7.25443V7.98776C11.1665 8.02309 11.1805 8.05709 11.2058 8.08176C11.2305 8.10709 11.2645 8.12109 11.2998 8.12109H12.0332C12.0685 8.12109 12.1025 8.10709 12.1272 8.08176C12.1525 8.05709 12.1665 8.02309 12.1665 7.98776V7.25443Z" fill="#6F6F6F"/>
<path fill-rule="evenodd" clip-rule="evenodd" d="M12.1665 9.42105C12.1665 9.38572 12.1525 9.35172 12.1272 9.32705C12.1025 9.30172 12.0685 9.28772 12.0332 9.28772H11.2998C11.2645 9.28772 11.2305 9.30172 11.2058 9.32705C11.1805 9.35172 11.1665 9.38572 11.1665 9.42105V10.1544C11.1665 10.1897 11.1805 10.2237 11.2058 10.2484C11.2305 10.2737 11.2645 10.2877 11.2998 10.2877H12.0332C12.0685 10.2877 12.1025 10.2737 12.1272 10.2484C12.1525 10.2237 12.1665 10.1897 12.1665 10.1544V9.42105Z" fill="#6F6F6F"/>
<path fill-rule="evenodd" clip-rule="evenodd" d="M12.1665 11.5877C12.1665 11.5524 12.1525 11.5184 12.1272 11.4937C12.1025 11.4684 12.0685 11.4544 12.0332 11.4544H11.2998C11.2645 11.4544 11.2305 11.4684 11.2058 11.4937C11.1805 11.5184 11.1665 11.5524 11.1665 11.5877V12.3211C11.1665 12.3564 11.1805 12.3904 11.2058 12.4151C11.2305 12.4404 11.2645 12.4544 11.2998 12.4544H12.0332C12.0685 12.4544 12.1025 12.4404 12.1272 12.4151C12.1525 12.3904 12.1665 12.3564 12.1665 12.3211V11.5877Z" fill="#6F6F6F"/>
<path fill-rule="evenodd" clip-rule="evenodd" d="M7.33325 6.92105C7.33325 6.88572 7.31925 6.85172 7.29392 6.82705C7.26925 6.80172 7.23525 6.78772 7.19992 6.78772H6.46659C6.43125 6.78772 6.39725 6.80172 6.37259 6.82705C6.34725 6.85172 6.33325 6.88572 6.33325 6.92105V7.65439C6.33325 7.68972 6.34725 7.72372 6.37259 7.74839C6.39725 7.77372 6.43125 7.78772 6.46659 7.78772H7.19992C7.23525 7.78772 7.26925 7.77372 7.29392 7.74839C7.31925 7.72372 7.33325 7.68972 7.33325 7.65439V6.92105Z" fill="#6F6F6F"/>
<path fill-rule="evenodd" clip-rule="evenodd" d="M7.33325 4.58774C7.33325 4.55241 7.31925 4.51841 7.29392 4.49374C7.26925 4.46841 7.23525 4.45441 7.19992 4.45441H6.46659C6.43125 4.45441 6.39725 4.46841 6.37259 4.49374C6.34725 4.51841 6.33325 4.55241 6.33325 4.58774V5.32107C6.33325 5.35641 6.34725 5.39041 6.37259 5.41507C6.39725 5.44041 6.43125 5.45441 6.46659 5.45441H7.19992C7.23525 5.45441 7.26925 5.44041 7.29392 5.41507C7.31925 5.39041 7.33325 5.35641 7.33325 5.32107V4.58774Z" fill="#6F6F6F"/>
<path fill-rule="evenodd" clip-rule="evenodd" d="M7.33325 9.25443C7.33325 9.21909 7.31925 9.18509 7.29392 9.16043C7.26925 9.13509 7.23525 9.12109 7.19992 9.12109H6.46659C6.43125 9.12109 6.39725 9.13509 6.37259 9.16043C6.34725 9.18509 6.33325 9.21909 6.33325 9.25443V9.98776C6.33325 10.0231 6.34725 10.0571 6.37259 10.0818C6.39725 10.1071 6.43125 10.1211 6.46659 10.1211H7.19992C7.23525 10.1211 7.26925 10.1071 7.29392 10.0818C7.31925 10.0571 7.33325 10.0231 7.33325 9.98776V9.25443Z" fill="#6F6F6F"/>
</g>
<defs>
<clipPath id="clip0_563_552">
<rect width="16" height="16" fill="white" transform="translate(0 0.121094)"/>
</clipPath>
</defs>
</svg>
