<svg width="16" height="17" viewBox="0 0 16 17" fill="none" xmlns="http://www.w3.org/2000/svg">
<g clip-path="url(#clip0_563_594)">
<path d="M4 3.12109C4 3.39709 3.776 3.62109 3.5 3.62109C3.224 3.62109 3 3.39709 3 3.12109C3 2.84509 3.224 2.62109 3.5 2.62109C3.776 2.62109 4 2.84509 4 3.12109Z" fill="#6F6F6F"/>
<path d="M5.66675 3.12109C5.66675 3.39709 5.44275 3.62109 5.16675 3.62109C4.89075 3.62109 4.66675 3.39709 4.66675 3.12109C4.66675 2.84509 4.89075 2.62109 5.16675 2.62109C5.44275 2.62109 5.66675 2.84509 5.66675 3.12109Z" fill="#6F6F6F"/>
<path d="M7.33325 3.12109C7.33325 3.39709 7.10925 3.62109 6.83325 3.62109C6.55725 3.62109 6.33325 3.39709 6.33325 3.12109C6.33325 2.84509 6.55725 2.62109 6.83325 2.62109C7.10925 2.62109 7.33325 2.84509 7.33325 3.12109Z" fill="#6F6F6F"/>
<path fill-rule="evenodd" clip-rule="evenodd" d="M15.1666 3.45441C15.1666 2.79107 14.9033 2.15574 14.4339 1.68641C13.9653 1.21774 13.3293 0.954407 12.6666 0.954407H3.33325C2.66992 0.954407 2.03459 1.21774 1.56525 1.68641C1.09659 2.15574 0.833252 2.79107 0.833252 3.45441V12.7877C0.833252 13.4511 1.09659 14.0864 1.56525 14.5557C2.03459 15.0244 2.66992 15.2877 3.33325 15.2877H12.6666C13.3293 15.2877 13.9653 15.0244 14.4339 14.5557C14.9033 14.0864 15.1666 13.4511 15.1666 12.7877V3.45441ZM14.1666 3.45441V12.7877C14.1666 13.1857 14.0086 13.5671 13.7273 13.8484C13.4459 14.1297 13.0646 14.2877 12.6666 14.2877H3.33325C2.93525 14.2877 2.55392 14.1297 2.27259 13.8484C1.99125 13.5671 1.83325 13.1857 1.83325 12.7877C1.83325 10.2704 1.83325 5.97174 1.83325 3.45441C1.83325 3.05641 1.99125 2.67507 2.27259 2.39374C2.55392 2.11241 2.93525 1.95441 3.33325 1.95441H12.6666C13.0646 1.95441 13.4459 2.11241 13.7273 2.39374C14.0086 2.67507 14.1666 3.05641 14.1666 3.45441Z" fill="#6F6F6F"/>
<path fill-rule="evenodd" clip-rule="evenodd" d="M1.33325 5.28772H14.6666C14.9426 5.28772 15.1666 5.06372 15.1666 4.78772C15.1666 4.51172 14.9426 4.28772 14.6666 4.28772H1.33325C1.05725 4.28772 0.833252 4.51172 0.833252 4.78772C0.833252 5.06372 1.05725 5.28772 1.33325 5.28772Z" fill="#6F6F6F"/>
<path fill-rule="evenodd" clip-rule="evenodd" d="M10.5 9.78772C10.5 8.40772 9.38 7.28772 8 7.28772C6.62 7.28772 5.5 8.40772 5.5 9.78772C5.5 11.1677 6.62 12.2877 8 12.2877C9.38 12.2877 10.5 11.1677 10.5 9.78772ZM9.5 9.78772C9.5 10.6157 8.828 11.2877 8 11.2877C7.172 11.2877 6.5 10.6157 6.5 9.78772C6.5 8.95972 7.172 8.28772 8 8.28772C8.828 8.28772 9.5 8.95972 9.5 9.78772Z" fill="#6F6F6F"/>
<path fill-rule="evenodd" clip-rule="evenodd" d="M5.02393 10.2877H5.99993C6.27593 10.2877 6.49993 10.0637 6.49993 9.78772C6.49993 9.51172 6.27593 9.28772 5.99993 9.28772H5.02393C4.74793 9.28772 4.52393 9.51172 4.52393 9.78772C4.52393 10.0637 4.74793 10.2877 5.02393 10.2877Z" fill="#6F6F6F"/>
<path fill-rule="evenodd" clip-rule="evenodd" d="M6.24867 12.2457L6.93934 11.5557C7.13467 11.3604 7.13467 11.0437 6.93934 10.8484C6.74401 10.6531 6.42734 10.6531 6.23201 10.8484L5.54201 11.5391C5.34667 11.7337 5.34667 12.0504 5.54201 12.2457C5.73734 12.4411 6.05401 12.4411 6.24867 12.2457Z" fill="#6F6F6F"/>
<path fill-rule="evenodd" clip-rule="evenodd" d="M8.5 12.7637V11.7877C8.5 11.5117 8.276 11.2877 8 11.2877C7.724 11.2877 7.5 11.5117 7.5 11.7877V12.7637C7.5 13.0397 7.724 13.2637 8 13.2637C8.276 13.2637 8.5 13.0397 8.5 12.7637Z" fill="#6F6F6F"/>
<path fill-rule="evenodd" clip-rule="evenodd" d="M10.4579 11.5391L9.7679 10.8484C9.57256 10.6531 9.2559 10.6531 9.06056 10.8484C8.86523 11.0437 8.86523 11.3604 9.06056 11.5557L9.75123 12.2457C9.9459 12.4411 10.2626 12.4411 10.4579 12.2457C10.6532 12.0504 10.6532 11.7337 10.4579 11.5391Z" fill="#6F6F6F"/>
<path fill-rule="evenodd" clip-rule="evenodd" d="M10.976 9.28772H10C9.724 9.28772 9.5 9.51172 9.5 9.78772C9.5 10.0637 9.724 10.2877 10 10.2877H10.976C11.252 10.2877 11.476 10.0637 11.476 9.78772C11.476 9.51172 11.252 9.28772 10.976 9.28772Z" fill="#6F6F6F"/>
<path fill-rule="evenodd" clip-rule="evenodd" d="M9.75123 7.32973L9.06056 8.01973C8.86523 8.21506 8.86523 8.53173 9.06056 8.72706C9.2559 8.92239 9.57256 8.92239 9.7679 8.72706L10.4579 8.03639C10.6532 7.84173 10.6532 7.52506 10.4579 7.32973C10.2626 7.13439 9.9459 7.13439 9.75123 7.32973Z" fill="#6F6F6F"/>
<path fill-rule="evenodd" clip-rule="evenodd" d="M7.5 6.81177V7.78777C7.5 8.06377 7.724 8.28777 8 8.28777C8.276 8.28777 8.5 8.06377 8.5 7.78777V6.81177C8.5 6.53577 8.276 6.31177 8 6.31177C7.724 6.31177 7.5 6.53577 7.5 6.81177Z" fill="#6F6F6F"/>
<path fill-rule="evenodd" clip-rule="evenodd" d="M5.54201 8.03639L6.23201 8.72706C6.42734 8.92239 6.74401 8.92239 6.93934 8.72706C7.13467 8.53173 7.13467 8.21506 6.93934 8.01973L6.24867 7.32973C6.05401 7.13439 5.73734 7.13439 5.54201 7.32973C5.34667 7.52506 5.34667 7.84173 5.54201 8.03639Z" fill="#6F6F6F"/>
</g>
<defs>
<clipPath id="clip0_563_594">
<rect width="16" height="16" fill="white" transform="translate(0 0.121094)"/>
</clipPath>
</defs>
</svg>
