<svg width="16" height="14" viewBox="0 0 16 14" fill="none" xmlns="http://www.w3.org/2000/svg">
<path fill-rule="evenodd" clip-rule="evenodd" d="M8.75659 2.95441C8.48392 2.95441 8.22859 2.82107 8.07259 2.59774L7.47459 1.73974C7.13192 1.24774 6.56992 0.954407 5.97059 0.954407C5.13525 0.954407 3.71525 0.954407 2.66659 0.954407C1.65392 0.954407 0.833252 1.77507 0.833252 2.78774V11.4544C0.833252 11.9404 1.02659 12.4071 1.36992 12.7511C1.71392 13.0944 2.18059 13.2877 2.66659 13.2877H13.3333C13.8193 13.2877 14.2859 13.0944 14.6299 12.7511C14.9733 12.4071 15.1666 11.9404 15.1666 11.4544V4.78774C15.1666 4.30174 14.9733 3.83507 14.6299 3.49107C14.2859 3.14774 13.8193 2.95441 13.3333 2.95441H8.75659ZM8.75659 3.95441H13.3333C13.5546 3.95441 13.7659 4.04241 13.9226 4.19841C14.0786 4.35507 14.1666 4.56641 14.1666 4.78774V11.4544C14.1666 11.6757 14.0786 11.8871 13.9226 12.0437C13.7659 12.1997 13.5546 12.2877 13.3333 12.2877H2.66659C2.44525 12.2877 2.23392 12.1997 2.07725 12.0437C1.92125 11.8871 1.83325 11.6757 1.83325 11.4544V2.78774C1.83325 2.32774 2.20659 1.95441 2.66659 1.95441H5.97059C6.24325 1.95441 6.49859 2.08774 6.65459 2.31107L7.25259 3.16907C7.59525 3.66107 8.15659 3.95441 8.75659 3.95441Z" fill="#6F6F6F"/>
<path fill-rule="evenodd" clip-rule="evenodd" d="M9.31325 7.14107L10.2926 8.12107L9.31325 9.10107C9.11791 9.29574 9.11791 9.61307 9.31325 9.80774C9.50791 10.0031 9.82525 10.0031 10.0199 9.80774L11.3532 8.4744C11.5486 8.27907 11.5486 7.96307 11.3532 7.76774L10.0199 6.4344C9.82525 6.23907 9.50791 6.23907 9.31325 6.4344C9.11791 6.62907 9.11791 6.9464 9.31325 7.14107Z" fill="#6F6F6F"/>
<path fill-rule="evenodd" clip-rule="evenodd" d="M5.97983 6.4344L4.6465 7.76774C4.45117 7.96307 4.45117 8.27907 4.6465 8.4744L5.97983 9.80774C6.1745 10.0031 6.49183 10.0031 6.6865 9.80774C6.88183 9.61307 6.88183 9.29574 6.6865 9.10107L5.70717 8.12107L6.6865 7.14107C6.88183 6.9464 6.88183 6.62907 6.6865 6.4344C6.49183 6.23907 6.1745 6.23907 5.97983 6.4344Z" fill="#6F6F6F"/>
<path fill-rule="evenodd" clip-rule="evenodd" d="M8.19184 5.96308L6.85851 9.96308C6.77184 10.2251 6.91317 10.5084 7.17517 10.5957C7.43717 10.6824 7.72051 10.5411 7.80784 10.2791L9.14117 6.27908C9.22784 6.01708 9.08651 5.73374 8.82451 5.64641C8.56251 5.55974 8.27917 5.70108 8.19184 5.96308Z" fill="#6F6F6F"/>
</svg>
