<svg width="14" height="14" viewBox="0 0 14 14" fill="none" xmlns="http://www.w3.org/2000/svg">
<g clip-path="url(#clip0_563_799)">
<path d="M12.9696 3.34898L7.20352 0.0540586C7.07744 -0.0180195 6.92262 -0.0180195 6.79651 0.0540586L1.03039 3.34898C0.90259 3.42199 0.82373 3.55791 0.82373 3.70508V10.2949C0.82373 10.4421 0.90259 10.578 1.03039 10.651L6.79651 13.9459C6.85956 13.982 6.92978 14 7 14C7.07022 14 7.14046 13.982 7.20349 13.9459L12.9696 10.651C13.0974 10.578 13.1763 10.4421 13.1763 10.2949V3.70508C13.1763 3.55789 13.0974 3.42199 12.9696 3.34898ZM7 0.882574L11.9394 3.70508L7 6.52761L2.0606 3.70508L7 0.882574ZM1.64404 4.41186L6.58984 7.23803V12.8831L1.64404 10.0569V4.41186ZM7.41016 12.8831V7.23803L12.356 4.41186V10.0569L7.41016 12.8831Z" fill="#FF1A26"/>
</g>
<defs>
<clipPath id="clip0_563_799">
<rect width="14" height="14" fill="white"/>
</clipPath>
</defs>
</svg>
