<svg width="12" height="12" viewBox="0 0 12 12" fill="none" xmlns="http://www.w3.org/2000/svg">
<path fill-rule="evenodd" clip-rule="evenodd" d="M6.77256 10.1026L2.67081 6.00006L6.77256 1.89756C6.99231 1.67856 6.99231 1.32156 6.77256 1.10256C6.55356 0.882807 6.19656 0.882807 5.97756 1.10256L1.47756 5.60256C1.25781 5.82231 1.25781 6.17781 1.47756 6.39756L5.97756 10.8976C6.19656 11.1173 6.55356 11.1173 6.77256 10.8976C6.99231 10.6786 6.99231 10.3216 6.77256 10.1026Z" fill="#161616"/>
<path fill-rule="evenodd" clip-rule="evenodd" d="M10.5226 10.1026L6.42081 6.00006L10.5226 1.89756C10.7423 1.67856 10.7423 1.32156 10.5226 1.10256C10.3036 0.882807 9.94656 0.882807 9.72756 1.10256L5.22756 5.60256C5.00781 5.82231 5.00781 6.17781 5.22756 6.39756L9.72756 10.8976C9.94656 11.1173 10.3036 11.1173 10.5226 10.8976C10.7423 10.6786 10.7423 10.3216 10.5226 10.1026Z" fill="#161616"/>
</svg>
