<svg width="16" height="17" viewBox="0 0 16 17" fill="none" xmlns="http://www.w3.org/2000/svg">
<g clip-path="url(#clip0_563_627)">
<path fill-rule="evenodd" clip-rule="evenodd" d="M4.75184 2.87907C5.69584 2.29307 6.80851 1.95441 7.99984 1.95441C11.4032 1.95441 14.1665 4.71774 14.1665 8.12107C14.1665 11.5244 11.4032 14.2877 7.99984 14.2877C6.80851 14.2877 5.69584 13.9491 4.75184 13.3631C4.51784 13.2171 4.20917 13.2897 4.06384 13.5237C3.91784 13.7584 3.98984 14.0671 4.22451 14.2124C5.32117 14.8937 6.61451 15.2877 7.99984 15.2877C11.9552 15.2877 15.1665 12.0764 15.1665 8.12107C15.1665 4.16574 11.9552 0.954407 7.99984 0.954407C6.61451 0.954407 5.32117 1.34841 4.22451 2.02974C3.98984 2.17507 3.91784 2.48374 4.06384 2.71841C4.20917 2.95241 4.51784 3.02507 4.75184 2.87907Z" fill="#6F6F6F"/>
<path fill-rule="evenodd" clip-rule="evenodd" d="M3.31525 12.129C2.39125 11.051 1.83325 9.65038 1.83325 8.12105C1.83325 6.59171 2.39125 5.19105 3.31525 4.11305C3.49459 3.90371 3.46992 3.58771 3.26059 3.40771C3.05059 3.22838 2.73525 3.25305 2.55525 3.46238C1.48192 4.71571 0.833252 6.34305 0.833252 8.12105C0.833252 9.89905 1.48192 11.5264 2.55525 12.7797C2.73525 12.989 3.05059 13.0137 3.26059 12.8344C3.46992 12.6544 3.49459 12.3384 3.31525 12.129Z" fill="#6F6F6F"/>
<path fill-rule="evenodd" clip-rule="evenodd" d="M3.6665 1.62109C2.8385 1.62109 2.1665 2.29309 2.1665 3.12109C2.1665 3.94909 2.8385 4.62109 3.6665 4.62109C4.4945 4.62109 5.1665 3.94909 5.1665 3.12109C5.1665 2.29309 4.4945 1.62109 3.6665 1.62109ZM3.6665 2.62109C3.9425 2.62109 4.1665 2.84509 4.1665 3.12109C4.1665 3.39709 3.9425 3.62109 3.6665 3.62109C3.3905 3.62109 3.1665 3.39709 3.1665 3.12109C3.1665 2.84509 3.3905 2.62109 3.6665 2.62109Z" fill="#6F6F6F"/>
<path fill-rule="evenodd" clip-rule="evenodd" d="M3.6665 11.6211C2.8385 11.6211 2.1665 12.2931 2.1665 13.1211C2.1665 13.9491 2.8385 14.6211 3.6665 14.6211C4.4945 14.6211 5.1665 13.9491 5.1665 13.1211C5.1665 12.2931 4.4945 11.6211 3.6665 11.6211ZM3.6665 12.6211C3.9425 12.6211 4.1665 12.8451 4.1665 13.1211C4.1665 13.3971 3.9425 13.6211 3.6665 13.6211C3.3905 13.6211 3.1665 13.3971 3.1665 13.1211C3.1665 12.8451 3.3905 12.6211 3.6665 12.6211Z" fill="#6F6F6F"/>
<path fill-rule="evenodd" clip-rule="evenodd" d="M10.6665 6.62109C9.8385 6.62109 9.1665 7.29309 9.1665 8.12109C9.1665 8.94909 9.8385 9.62109 10.6665 9.62109C11.4945 9.62109 12.1665 8.94909 12.1665 8.12109C12.1665 7.29309 11.4945 6.62109 10.6665 6.62109ZM10.6665 7.62109C10.9425 7.62109 11.1665 7.84509 11.1665 8.12109C11.1665 8.39709 10.9425 8.62109 10.6665 8.62109C10.3905 8.62109 10.1665 8.39709 10.1665 8.12109C10.1665 7.84509 10.3905 7.62109 10.6665 7.62109Z" fill="#6F6F6F"/>
<path fill-rule="evenodd" clip-rule="evenodd" d="M10.1379 9.09107C10.0279 10.9157 9.61792 12.4897 9.02392 13.4544C8.71792 13.9504 8.39125 14.2877 7.99992 14.2877C7.81592 14.2877 7.64325 14.2017 7.47725 14.0637C7.25392 13.8771 7.05059 13.6024 6.86459 13.2611C6.23192 12.1024 5.83325 10.2297 5.83325 8.12107C5.83325 6.01241 6.23192 4.13974 6.86459 2.98107C7.05059 2.63974 7.25392 2.36507 7.47725 2.17841C7.64325 2.04041 7.81592 1.95441 7.99992 1.95441C8.39125 1.95441 8.71792 2.29174 9.02392 2.78774C9.61792 3.75241 10.0279 5.32641 10.1379 7.15107C10.1539 7.42641 10.3913 7.63707 10.6666 7.62041C10.9426 7.60374 11.1526 7.36641 11.1359 7.09107C11.0139 5.06907 10.5333 3.33241 9.87525 2.26374C9.34592 1.40374 8.67792 0.954407 7.99992 0.954407C7.26459 0.954407 6.53792 1.49174 5.98659 2.50174C5.29458 3.76974 4.83325 5.81441 4.83325 8.12107C4.83325 10.4277 5.29458 12.4724 5.98659 13.7404C6.53792 14.7504 7.26459 15.2877 7.99992 15.2877C8.67792 15.2877 9.34592 14.8384 9.87525 13.9784C10.5333 12.9097 11.0139 11.1731 11.1359 9.15107C11.1526 8.87574 10.9426 8.63841 10.6666 8.62174C10.3913 8.60507 10.1539 8.81574 10.1379 9.09107Z" fill="#6F6F6F"/>
<path fill-rule="evenodd" clip-rule="evenodd" d="M14.0007 4.96774L2.00067 4.95441C1.72467 4.95441 1.5 5.17774 1.5 5.45374C1.5 5.72974 1.72333 5.95441 1.99933 5.95441L13.9993 5.96774C14.2753 5.96841 14.5 5.74441 14.5 5.46841C14.5 5.19241 14.2767 4.96841 14.0007 4.96774Z" fill="#6F6F6F"/>
<path fill-rule="evenodd" clip-rule="evenodd" d="M14.0007 10.3011L2.00067 10.2877C1.72467 10.2877 1.5 10.5111 1.5 10.7871C1.5 11.0631 1.72333 11.2877 1.99933 11.2877L13.9993 11.3011C14.2753 11.3017 14.5 11.0777 14.5 10.8017C14.5 10.5257 14.2767 10.3017 14.0007 10.3011Z" fill="#6F6F6F"/>
</g>
<defs>
<clipPath id="clip0_563_627">
<rect width="16" height="16" fill="white" transform="translate(0 0.121094)"/>
</clipPath>
</defs>
</svg>
