<svg width="20" height="20" viewBox="0 0 20 20" fill="none" xmlns="http://www.w3.org/2000/svg">
<g clip-path="url(#clip0_563_657)">
<path d="M2.41479 3.48452C7.06352 -1.92545 15.6835 -0.857958 18.9047 5.462C16.636 5.46325 13.0847 5.46075 11.161 5.462C9.766 5.462 8.86476 5.43075 7.88976 5.9445C6.74352 6.54825 5.87727 7.66699 5.57603 8.98198L2.41479 3.48452Z" fill="#F44336"/>
<path d="M6.67358 10.0007C6.67358 11.8345 8.16483 13.3257 9.99731 13.3257C11.8298 13.3257 13.321 11.8345 13.321 10.0007C13.321 8.16698 11.8298 6.67574 9.99731 6.67574C8.16358 6.67449 6.67358 8.16698 6.67358 10.0007Z" fill="#2196F3"/>
<path d="M11.2859 14.3532C9.42094 14.9069 7.2372 14.2932 6.04221 12.2282C5.12972 10.6532 2.71723 6.452 1.62224 4.54076C-2.21774 10.4257 1.09099 18.4444 8.06095 19.8132L11.2859 14.3532Z" fill="#4CAF50"/>
<path d="M13.0835 6.6745C14.6373 8.11949 14.976 10.4595 13.9235 12.2732C13.131 13.6407 10.5998 17.9119 9.37354 19.9794C16.5547 20.4219 21.7897 13.3845 19.4247 6.67325L13.0835 6.6745Z" fill="#FFC107"/>
</g>
<defs>
<clipPath id="clip0_563_657">
<rect width="20" height="20" fill="white"/>
</clipPath>
</defs>
</svg>
