<svg width="24" height="24" viewBox="0 0 24 24" fill="none" xmlns="http://www.w3.org/2000/svg">
<path fill-rule="evenodd" clip-rule="evenodd" d="M11.3031 11.904C11.2501 12.939 11.2501 14.75 11.2501 14.75C11.2501 15.164 11.5861 15.5 12.0001 15.5C12.4141 15.5 12.7501 15.164 12.7501 14.75C12.7501 14.75 12.7501 12.971 12.8021 11.967C12.8021 11.955 12.8021 11.942 12.8021 11.929C12.8021 11.9 12.8221 11.876 12.8491 11.869C12.8701 11.864 12.8901 11.858 12.9091 11.852C14.2811 11.392 15.2501 9.881 15.2501 8.359C15.2501 6.505 13.7451 5 11.8911 5C10.5151 5 9.33107 5.829 8.81307 7.015C8.64707 7.394 8.82007 7.836 9.19907 8.002C9.57907 8.168 10.0211 7.995 10.1871 7.616C10.4741 6.959 11.1301 6.5 11.8911 6.5C12.9171 6.5 13.7501 7.333 13.7501 8.359C13.7501 9.235 13.2481 10.136 12.4661 10.418C11.7851 10.602 11.3141 11.207 11.3031 11.904Z" fill="#6F6F6F"/>
<path d="M12 18.25C12.5523 18.25 13 17.8023 13 17.25C13 16.6977 12.5523 16.25 12 16.25C11.4477 16.25 11 16.6977 11 17.25C11 17.8023 11.4477 18.25 12 18.25Z" fill="#6F6F6F"/>
<path fill-rule="evenodd" clip-rule="evenodd" d="M12 1.25C6.067 1.25 1.25 6.067 1.25 12C1.25 17.933 6.067 22.75 12 22.75C17.933 22.75 22.75 17.933 22.75 12C22.75 6.067 17.933 1.25 12 1.25ZM12 2.75C17.105 2.75 21.25 6.895 21.25 12C21.25 17.105 17.105 21.25 12 21.25C6.895 21.25 2.75 17.105 2.75 12C2.75 6.895 6.895 2.75 12 2.75Z" fill="#6F6F6F"/>
</svg>
