<svg width="24" height="24" viewBox="0 0 24 24" fill="none" xmlns="http://www.w3.org/2000/svg">
<path d="M7.34306 4.15582C7.34306 2.68898 8.53217 1.49988 9.999 1.49988C11.4658 1.49988 12.6549 2.68898 12.6549 4.15582V5.74938H13.7173C15.2023 5.74938 15.9448 5.74938 16.5305 5.99198C17.3115 6.31546 17.9319 6.93591 18.2554 7.71684C18.498 8.30254 18.498 9.04505 18.498 10.5301H20.0916C21.5584 10.5301 22.7475 11.7192 22.7475 13.186C22.7475 14.6528 21.5584 15.8419 20.0916 15.8419H18.498V17.648C18.498 19.4329 18.498 20.3254 18.1506 21.0072C17.8451 21.6069 17.3575 22.0944 16.7578 22.4C16.076 22.7474 15.1836 22.7474 13.3986 22.7474H12.6549V20.8882C12.6549 19.5681 11.5847 18.4979 10.2646 18.4979C8.94444 18.4979 7.87425 19.5681 7.87425 20.8882V22.7474H6.5994C4.81444 22.7474 3.92196 22.7474 3.2402 22.4C2.6405 22.0944 2.15294 21.6069 1.84738 21.0072C1.5 20.3254 1.5 19.4329 1.5 17.648V15.8419H3.09356C4.5604 15.8419 5.7495 14.6528 5.7495 13.186C5.7495 11.7192 4.5604 10.5301 3.09356 10.5301H1.5C1.5 9.04505 1.5 8.30254 1.74261 7.71684C2.06608 6.93591 2.68653 6.31546 3.46746 5.99198C4.05317 5.74938 4.79567 5.74938 6.28069 5.74938H7.34306V4.15582Z" stroke="#6F6F6F" stroke-width="1.5" stroke-linecap="round" stroke-linejoin="round"/>
</svg>
