<svg width="16" height="17" viewBox="0 0 16 17" fill="none" xmlns="http://www.w3.org/2000/svg">
<g clip-path="url(#clip0_563_571)">
<path fill-rule="evenodd" clip-rule="evenodd" d="M5.33341 2.28772C5.60941 2.28772 5.83341 2.51172 5.83341 2.78772C5.83341 3.06372 5.60941 3.28772 5.33341 3.28772H4.33341C3.68875 3.28772 3.16675 3.81039 3.16675 4.45439V13.1211C3.16675 13.4304 3.28941 13.7271 3.50875 13.9457C3.72741 14.1651 4.02408 14.2877 4.33341 14.2877H11.6667C11.9761 14.2877 12.2727 14.1651 12.4914 13.9457C12.7107 13.7271 12.8334 13.4304 12.8334 13.1211V4.45439C12.8334 3.81039 12.3114 3.28772 11.6667 3.28772H10.6667C10.3907 3.28772 10.1667 3.06372 10.1667 2.78772C10.1667 2.51172 10.3907 2.28772 10.6667 2.28772H11.6667C12.8634 2.28772 13.8334 3.25772 13.8334 4.45439V13.1211C13.8334 13.6957 13.6054 14.2471 13.1987 14.6531C12.7927 15.0597 12.2414 15.2877 11.6667 15.2877H4.33341C3.75875 15.2877 3.20741 15.0597 2.80141 14.6531C2.39475 14.2471 2.16675 13.6957 2.16675 13.1211V4.45439C2.16675 3.25772 3.13675 2.28772 4.33341 2.28772H5.33341Z" fill="#6F6F6F"/>
<path fill-rule="evenodd" clip-rule="evenodd" d="M11.1668 2.12107V3.45441C11.1668 4.09907 10.6442 4.62107 10.0002 4.62107H6.00016C5.35616 4.62107 4.8335 4.09907 4.8335 3.45441V2.12107C4.8335 1.47641 5.35616 0.954407 6.00016 0.954407H10.0002C10.6442 0.954407 11.1668 1.47641 11.1668 2.12107ZM10.1668 2.12107C10.1668 2.02907 10.0922 1.95441 10.0002 1.95441H6.00016C5.90816 1.95441 5.8335 2.02907 5.8335 2.12107V3.45441C5.8335 3.54641 5.90816 3.62107 6.00016 3.62107H10.0002C10.0922 3.62107 10.1668 3.54641 10.1668 3.45441V2.12107Z" fill="#6F6F6F"/>
<path fill-rule="evenodd" clip-rule="evenodd" d="M5.3335 7.28772C5.0575 7.28772 4.8335 7.06372 4.8335 6.78772C4.8335 6.51172 5.0575 6.28772 5.3335 6.28772H10.0002C10.2762 6.28772 10.5002 6.51172 10.5002 6.78772C10.5002 7.06372 10.2762 7.28772 10.0002 7.28772H5.3335Z" fill="#6F6F6F"/>
<path fill-rule="evenodd" clip-rule="evenodd" d="M5.3335 9.95441C5.0575 9.95441 4.8335 9.73041 4.8335 9.45441C4.8335 9.17841 5.0575 8.95441 5.3335 8.95441H10.0002C10.2762 8.95441 10.5002 9.17841 10.5002 9.45441C10.5002 9.73041 10.2762 9.95441 10.0002 9.95441H5.3335Z" fill="#6F6F6F"/>
<path fill-rule="evenodd" clip-rule="evenodd" d="M5.3335 12.6211C5.0575 12.6211 4.8335 12.3971 4.8335 12.1211C4.8335 11.8451 5.0575 11.6211 5.3335 11.6211H8.3335C8.6095 11.6211 8.8335 11.8451 8.8335 12.1211C8.8335 12.3971 8.6095 12.6211 8.3335 12.6211H5.3335Z" fill="#6F6F6F"/>
</g>
<defs>
<clipPath id="clip0_563_571">
<rect width="16" height="16" fill="white" transform="translate(0 0.121094)"/>
</clipPath>
</defs>
</svg>
