<svg width="14" height="16" viewBox="0 0 14 16" fill="none" xmlns="http://www.w3.org/2000/svg">
<path fill-rule="evenodd" clip-rule="evenodd" d="M7 0.954468C9.20733 0.954468 11 2.74713 11 4.95447C11 7.1618 9.20733 8.95447 7 8.95447C4.79267 8.95447 3 7.1618 3 4.95447C3 2.74713 4.79267 0.954468 7 0.954468ZM7 1.95447C5.344 1.95447 4 3.29847 4 4.95447C4 6.61047 5.344 7.95447 7 7.95447C8.656 7.95447 10 6.61047 10 4.95447C10 3.29847 8.656 1.95447 7 1.95447Z" fill="#FF1A26"/>
<path fill-rule="evenodd" clip-rule="evenodd" d="M1.16675 14.7878C1.16675 15.0638 0.942748 15.2878 0.666748 15.2878C0.390748 15.2878 0.166748 15.0638 0.166748 14.7878C0.166748 11.0165 3.22875 7.95447 7.00008 7.95447C10.7714 7.95447 13.8334 11.0165 13.8334 14.7878C13.8334 15.0638 13.6094 15.2878 13.3334 15.2878C13.0574 15.2878 12.8334 15.0638 12.8334 14.7878C12.8334 11.5685 10.2194 8.95447 7.00008 8.95447C3.78075 8.95447 1.16675 11.5685 1.16675 14.7878Z" fill="#FF1A26"/>
</svg>
