<svg width="14" height="14" viewBox="0 0 14 14" fill="none" xmlns="http://www.w3.org/2000/svg">
<g clip-path="url(#clip0_579_1340)">
<path d="M10.5875 13.125H2.5375C1.61875 13.125 0.875 12.3813 0.875 11.4625V3.4125C0.875 2.49375 1.61875 1.75 2.5375 1.75H7.7875C8.05 1.75 8.225 1.925 8.225 2.1875C8.225 2.45 8.05 2.625 7.7875 2.625H2.5375C2.1 2.625 1.75 2.975 1.75 3.4125V11.5062C1.75 11.9437 2.1 12.2937 2.5375 12.2937H10.6312C11.0687 12.2937 11.4187 11.9437 11.4187 11.5062V6.25625C11.4187 5.99375 11.5938 5.81875 11.8562 5.81875C12.1188 5.81875 12.2937 5.99375 12.2937 6.25625V11.5062C12.25 12.3812 11.5063 13.125 10.5875 13.125Z" fill="#161616"/>
<path d="M12.25 0.875H10.0625C9.8 0.875 9.625 1.05 9.625 1.3125C9.625 1.575 9.8 1.75 10.0625 1.75H11.6375L6.69375 6.69375C6.51875 6.86875 6.51875 7.13125 6.69375 7.30625C6.78125 7.39375 6.9125 7.4375 7 7.4375C7.0875 7.4375 7.21875 7.39375 7.30625 7.30625L12.25 2.3625V3.9375C12.25 4.2 12.425 4.375 12.6875 4.375C12.95 4.375 13.125 4.2 13.125 3.9375V1.75C13.125 1.26875 12.7312 0.875 12.25 0.875Z" fill="#161616"/>
</g>
<defs>
<clipPath id="clip0_579_1340">
<rect width="14" height="14" fill="white"/>
</clipPath>
</defs>
</svg>
