<svg width="16" height="17" viewBox="0 0 16 17" fill="none" xmlns="http://www.w3.org/2000/svg">
<g clip-path="url(#clip0_563_640)">
<path fill-rule="evenodd" clip-rule="evenodd" d="M0.833252 1.45441C0.833252 1.17841 1.05725 0.954407 1.33325 0.954407C1.60925 0.954407 1.83325 1.17841 1.83325 1.45441V14.1211C1.83325 14.1651 1.85059 14.2077 1.88192 14.2391C1.91325 14.2704 1.95592 14.2877 1.99992 14.2877H14.6666C14.9426 14.2877 15.1666 14.5117 15.1666 14.7877C15.1666 15.0637 14.9426 15.2877 14.6666 15.2877H1.99992C1.69059 15.2877 1.39392 15.1651 1.17525 14.9457C0.955919 14.7271 0.833252 14.4304 0.833252 14.1211V1.45441Z" fill="#6F6F6F"/>
<path fill-rule="evenodd" clip-rule="evenodd" d="M4.33325 12.6211C3.50525 12.6211 2.83325 11.9491 2.83325 11.1211C2.83325 10.2931 3.50525 9.62109 4.33325 9.62109C5.16125 9.62109 5.83325 10.2931 5.83325 11.1211C5.83325 11.9491 5.16125 12.6211 4.33325 12.6211ZM4.33325 11.6211C4.60925 11.6211 4.83325 11.3971 4.83325 11.1211C4.83325 10.8451 4.60925 10.6211 4.33325 10.6211C4.05725 10.6211 3.83325 10.8451 3.83325 11.1211C3.83325 11.3971 4.05725 11.6211 4.33325 11.6211Z" fill="#6F6F6F"/>
<path fill-rule="evenodd" clip-rule="evenodd" d="M13 6.62109C12.172 6.62109 11.5 5.94909 11.5 5.12109C11.5 4.29309 12.172 3.62109 13 3.62109C13.828 3.62109 14.5 4.29309 14.5 5.12109C14.5 5.94909 13.828 6.62109 13 6.62109ZM13 5.62109C13.276 5.62109 13.5 5.39709 13.5 5.12109C13.5 4.84509 13.276 4.62109 13 4.62109C12.724 4.62109 12.5 4.84509 12.5 5.12109C12.5 5.39709 12.724 5.62109 13 5.62109Z" fill="#6F6F6F"/>
<path fill-rule="evenodd" clip-rule="evenodd" d="M9.33325 10.9544C8.50525 10.9544 7.83325 10.2824 7.83325 9.45441C7.83325 8.62641 8.50525 7.95441 9.33325 7.95441C10.1613 7.95441 10.8333 8.62641 10.8333 9.45441C10.8333 10.2824 10.1613 10.9544 9.33325 10.9544ZM9.33325 9.95441C9.60925 9.95441 9.83325 9.73041 9.83325 9.45441C9.83325 9.17841 9.60925 8.95441 9.33325 8.95441C9.05725 8.95441 8.83325 9.17841 8.83325 9.45441C8.83325 9.73041 9.05725 9.95441 9.33325 9.95441Z" fill="#6F6F6F"/>
<path fill-rule="evenodd" clip-rule="evenodd" d="M5.53668 11.5778C5.28402 11.6898 4.98868 11.5764 4.87668 11.3244C4.76468 11.0718 4.87802 10.7764 5.13002 10.6644L8.13002 9.33109C8.38268 9.21909 8.67802 9.33242 8.79002 9.58442C8.90202 9.83709 8.78868 10.1324 8.53668 10.2444L5.53668 11.5778Z" fill="#6F6F6F"/>
<path fill-rule="evenodd" clip-rule="evenodd" d="M10.7492 9.39842C10.5959 9.62775 10.2852 9.69041 10.0559 9.53708C9.82657 9.38375 9.76391 9.07308 9.91724 8.84375L11.9172 5.84375C12.0706 5.61441 12.3812 5.55175 12.6106 5.70508C12.8399 5.85842 12.9026 6.16908 12.7492 6.39842L10.7492 9.39842Z" fill="#6F6F6F"/>
</g>
<defs>
<clipPath id="clip0_563_640">
<rect width="16" height="16" fill="white" transform="translate(0 0.121094)"/>
</clipPath>
</defs>
</svg>
