<svg width="16" height="16" viewBox="0 0 16 16" fill="none" xmlns="http://www.w3.org/2000/svg">
<g clip-path="url(#clip0_563_791)">
<path fill-rule="evenodd" clip-rule="evenodd" d="M6.99992 0.833374C3.59659 0.833374 0.833252 3.59671 0.833252 7.00004C0.833252 10.4034 3.59659 13.1667 6.99992 13.1667C10.4033 13.1667 13.1666 10.4034 13.1666 7.00004C13.1666 3.59671 10.4033 0.833374 6.99992 0.833374ZM6.99992 1.83337C9.85125 1.83337 12.1666 4.14871 12.1666 7.00004C12.1666 9.85137 9.85125 12.1667 6.99992 12.1667C4.14859 12.1667 1.83325 9.85137 1.83325 7.00004C1.83325 4.14871 4.14859 1.83337 6.99992 1.83337Z" fill="#8C8C8C"/>
<path fill-rule="evenodd" clip-rule="evenodd" d="M15.0199 14.3134L11.3599 10.6527C11.1646 10.4574 10.8479 10.4574 10.6526 10.6527C10.4573 10.8481 10.4573 11.1647 10.6526 11.3601L14.3133 15.0201C14.5079 15.2154 14.8253 15.2154 15.0199 15.0201C15.2153 14.8254 15.2153 14.5081 15.0199 14.3134Z" fill="#8C8C8C"/>
</g>
<defs>
<clipPath id="clip0_563_791">
<rect width="16" height="16" fill="white"/>
</clipPath>
</defs>
</svg>
