<svg width="24" height="24" viewBox="0 0 24 24" fill="none" xmlns="http://www.w3.org/2000/svg">
<path fill-rule="evenodd" clip-rule="evenodd" d="M1.25 7.25V17.75C1.25 18.479 1.54 19.179 2.055 19.695C2.571 20.21 3.271 20.5 4 20.5H18C18.729 20.5 19.429 20.21 19.945 19.695C20.46 19.179 20.75 18.479 20.75 17.75C20.75 16.856 20.75 16 20.75 16C20.75 15.586 20.414 15.25 20 15.25C19.586 15.25 19.25 15.586 19.25 16V17.75C19.25 18.082 19.118 18.399 18.884 18.634C18.649 18.868 18.332 19 18 19H4C3.668 19 3.351 18.868 3.116 18.634C2.882 18.399 2.75 18.082 2.75 17.75V7.25C2.75 6.836 2.414 6.5 2 6.5C1.586 6.5 1.25 6.836 1.25 7.25Z" fill="#6F6F6F"/>
<path fill-rule="evenodd" clip-rule="evenodd" d="M20.75 11C20.75 11 20.75 10 20.75 9C20.75 7.481 19.519 6.25 18 6.25H8C7.586 6.25 7.25 6.586 7.25 7C7.25 7.414 7.586 7.75 8 7.75H18C18.69 7.75 19.25 8.31 19.25 9V11C19.25 11.414 19.586 11.75 20 11.75C20.414 11.75 20.75 11.414 20.75 11Z" fill="#6F6F6F"/>
<path fill-rule="evenodd" clip-rule="evenodd" d="M15.25 6.25H8C7.586 6.25 7.25 6.586 7.25 7C7.25 7.414 7.586 7.75 8 7.75H16C16 7.75 16.75 7.691 16.75 6.987V6C16.75 5.271 16.46 4.571 15.945 4.055C15.429 3.54 14.729 3.25 14 3.25H4C2.481 3.25 1.25 4.481 1.25 6V8C1.25 8.414 1.586 8.75 2 8.75C2.414 8.75 2.75 8.414 2.75 8C2.75 8 2.75 7 2.75 6C2.75 5.31 3.31 4.75 4 4.75H14C14.332 4.75 14.649 4.882 14.884 5.116C15.118 5.351 15.25 5.668 15.25 6V6.25Z" fill="#6F6F6F"/>
<path fill-rule="evenodd" clip-rule="evenodd" d="M22.75 12C22.75 11.536 22.566 11.091 22.237 10.763C21.909 10.434 21.464 10.25 21 10.25C20.129 10.25 18.871 10.25 18 10.25C17.536 10.25 17.091 10.434 16.763 10.763C16.434 11.091 16.25 11.536 16.25 12V15C16.25 15.464 16.434 15.909 16.763 16.237C17.091 16.566 17.536 16.75 18 16.75H21C21.464 16.75 21.909 16.566 22.237 16.237C22.566 15.909 22.75 15.464 22.75 15V12ZM21.25 12V15C21.25 15.066 21.224 15.13 21.177 15.177C21.13 15.224 21.066 15.25 21 15.25H18C17.934 15.25 17.87 15.224 17.823 15.177C17.776 15.13 17.75 15.066 17.75 15V12C17.75 11.934 17.776 11.87 17.823 11.823C17.87 11.776 17.934 11.75 18 11.75H21C21.066 11.75 21.13 11.776 21.177 11.823C21.224 11.87 21.25 11.934 21.25 12Z" fill="#6F6F6F"/>
</svg>
